<svg id="Layer_1" data-name="Layer 1" xmlns="http://www.w3.org/2000/svg" viewBox="0 0 792 390"><defs><style>.cls-1{fill:#fff;}.cls-2{fill:#93c13e;}</style></defs><title>Chirilogo</title><path class="cls-1" d="M170.474,58.685V88.6c6.087,0,11.882-.144,17.668.028,14.864.442,28.247,10.714,31.6,24.087a9.384,9.384,0,0,1,.515,2.139c.029,18.049.023,36.1.023,54.42H202.119c0-4.633.012-9.165,0-13.7-.034-10.529.255-21.074-.209-31.584-.547-12.377-8.075-18.629-20.465-17.494-3.614.331-7.167,1.336-11.037,2.088v60.554H152.119V60.345l10.594-1.66Z"/><path class="cls-1" d="M452.11,108.558v60.721H434.592c0-9.073,0-17.887,0-26.7,0-5.542.047-11.083-.011-16.624-.166-15.986-9.407-22.732-25.374-17.9V169.28H391.256c-.115-1.545-.312-2.957-.313-4.369-.02-21.427.061-42.855-.091-64.281-.024-3.407.916-5.138,4.159-6.6,13.544-6.1,27.033-8.124,41.037-1.471,1.488.707,3.9-.043,5.724-.614,11.3-3.53,22.717-5.416,34.116-1.018,12.318,4.752,20.523,13.312,20.841,27.155.389,16.942.093,33.9.093,51.157H478.594c0-1.909,0-3.848,0-5.788-.008-13.115.239-26.236-.091-39.343C478.123,108.992,464.368,101.588,452.11,108.558Z"/><path class="cls-1" d="M587.392,129.674c-.036,18.484-9.154,33.045-24.155,38.576-16.085,5.93-34.66,1.6-45.012-10.631-16.65-19.677-12.632-62.682,21.795-68.409C569.139,84.366,587.491,103.063,587.392,129.674Zm-59.11-.814c.107,1.9.1,3.94.354,5.943,1.44,11.225,8.517,18.106,19.033,18.591,9.59.443,17.381-5.527,19.348-16.026a43.952,43.952,0,0,0,.012-16.362c-2.568-12.787-14.908-19.112-26.636-14.03C530.965,111.062,528.646,119.425,528.282,128.86Z"/><path class="cls-1" d="M725.65,116.106c-.806-7.51-5.035-11.907-13.269-11.914a73.364,73.364,0,0,0-15.854,1.61c-3.2.71-4.737.355-5.852-2.662-1.132-3.065-2.546-6.025-3.822-9,16.062-8.395,40.249-8.709,51.021,7.045,2.978,4.355,5.366,9.981,5.642,15.151.784,14.718.424,29.5.249,44.257a5.992,5.992,0,0,1-2.856,4.412,61.293,61.293,0,0,1-43.6,3.445c-11.689-3.251-18.6-11.823-19.062-22.913-.523-12.486,4.3-20.869,16.869-24.618C704.763,118.042,715.161,117.66,725.65,116.106Zm.606,39.032c0-7.933.175-13.817-.141-19.675-.067-1.245-1.922-3.414-2.961-3.418-6.371-.027-12.856-.184-19.083.931-6.136,1.1-9.048,5.251-8.695,10.376.389,5.646,3.675,9.589,9.043,10.4C711.342,154.8,718.438,154.7,726.256,155.138Z"/><path class="cls-1" d="M301.65,169.379h-17.8a40.457,40.457,0,0,1-.447-4.24c-.032-14.966-.1-29.932,0-44.9.131-19.065,12.97-31.884,32.181-31.553,7.369.127,14.713,1.718,22.7,2.722l-4.926,16.731c-5.05-.6-9.747-1.563-14.457-1.634-9.583-.143-16.064,5.3-16.628,14.828-.72,12.15-.474,24.358-.619,36.541C301.613,161.54,301.65,165.205,301.65,169.379Z"/><path class="cls-1" d="M245.082,169.193V90.064h18.131v79.129Z"/><path class="cls-1" d="M370.812,169.358h-18.05V90h18.05Z"/><path class="cls-2" d="M674.292,90.092H655.5q-.59,4.124-1.415,8.142a377.541,377.541,0,0,1-14.3,42.017q-2.424,5.4-5.027,10.811c-10.049-20.055-18.716-39.608-22.072-61.029h-18.57c1.087,5.005,1.927,9.526,3.059,13.972,5.5,21.606,16.074,41.055,25.921,60.816a31.727,31.727,0,0,0,3.3,4.949A345.494,345.494,0,0,1,591.132,226c-49.807,64.134-115.155,96.653-194.229,96.653-69.308,0-120.859-24.5-151.9-45.05-38.735-25.646-61.857-55.333-69.888-72.962l-14.125,6.435c5.216,11.45,14.638,24.935,26.531,37.969a265.294,265.294,0,0,0,48.913,41.5c32.819,21.728,87.3,47.63,160.47,47.63,45.667,0,87.63-10.467,124.724-31.111,30.622-17.043,58.132-41.113,81.764-71.543,20.625-26.558,35.579-54.408,46.15-78.494,8.29-15.99,16.105-32.638,20.952-49.88C672.053,101.6,673.019,95.882,674.292,90.092Z"/><path class="cls-1" d="M296.286,253.549c-6.777,14.842-15.66,17.122-23.663,13.467s-12.1-11.86-5.321-26.7,29.864-27.045,29.864-27.045S303.063,238.707,296.286,253.549Z"/><path class="cls-1" d="M371.172,271.022c-2.336,16.148-10.22,20.831-18.928,19.571s-14.942-7.985-12.607-24.132S360.7,232.117,360.7,232.117,373.508,254.874,371.172,271.022Z"/><path class="cls-1" d="M447.951,266.758c2.294,16.154-3.958,22.863-12.669,24.1s-16.583-3.466-18.877-19.62,10.57-38.878,10.57-38.878S445.657,250.6,447.951,266.758Z"/><path class="cls-1" d="M520.442,241.1c6.739,14.859,2.624,23.054-5.39,26.688s-16.889,1.331-23.628-13.528-.776-40.282-.776-40.282S513.7,226.24,520.442,241.1Z"/><path class="cls-1" d="M135.754,76.718,122.565,87.779c-1.855-1.56-3.611-3.028-5.357-4.507-6.958-5.894-15.067-7.915-23.94-6.668C81.42,78.27,74.4,85.732,70.809,96.626a54.054,54.054,0,0,0,.009,34.328c2.7,8.3,7.619,14.864,15.934,18.388,10.168,4.31,23.87,1.655,31.684-6.175,1.464-1.467,2.807-3.053,4.317-4.7l13.288,12.191a38.93,38.93,0,0,1-11.9,11.193c-15.127,9.079-30.943,9.878-47.031,3.04-10.535-4.477-17.912-12.528-22.756-22.778-7.032-14.88-8.078-30.358-3.871-46.213A52.506,52.506,0,0,1,62.633,73.423,44.3,44.3,0,0,1,89.169,59.239c11.641-1.8,22.73-.184,33.128,5.557A43.89,43.89,0,0,1,135.754,76.718Z"/><path class="cls-1" d="M211.914,69.373l-.013,2.148H199.9V52.038H211.9v2.148h-9.368v6.472h7.587v2.067h-7.587v6.648Z"/><path class="cls-1" d="M245.115,55.084a1,1,0,0,1-.265.305.578.578,0,0,1-.346.1.97.97,0,0,1-.544-.231c-.209-.154-.469-.324-.782-.51a6.429,6.429,0,0,0-1.128-.51,4.872,4.872,0,0,0-1.6-.231,4.683,4.683,0,0,0-1.557.237,3.345,3.345,0,0,0-1.128.646,2.65,2.65,0,0,0-.686.958,3.051,3.051,0,0,0-.231,1.19,2.2,2.2,0,0,0,.4,1.352,3.445,3.445,0,0,0,1.06.918,8.185,8.185,0,0,0,1.5.659q.835.279,1.713.578t1.713.672a6,6,0,0,1,1.5.945,4.309,4.309,0,0,1,1.061,1.4,4.664,4.664,0,0,1,.4,2.04,6.574,6.574,0,0,1-.435,2.4,5.531,5.531,0,0,1-1.271,1.951,5.944,5.944,0,0,1-2.053,1.3,7.549,7.549,0,0,1-2.766.476,8.436,8.436,0,0,1-3.454-.686,8.106,8.106,0,0,1-2.651-1.856l.761-1.251a1,1,0,0,1,.265-.252.618.618,0,0,1,.346-.1.768.768,0,0,1,.4.143q.226.143.51.361t.653.475a5.389,5.389,0,0,0,.836.476,5.6,5.6,0,0,0,1.068.359,5.806,5.806,0,0,0,1.346.143,5.026,5.026,0,0,0,1.673-.258,3.55,3.55,0,0,0,1.244-.728,3.158,3.158,0,0,0,.782-1.122,3.759,3.759,0,0,0,.272-1.455,2.439,2.439,0,0,0-.4-1.448,3.336,3.336,0,0,0-1.054-.945,7.331,7.331,0,0,0-1.5-.645q-.843-.265-1.713-.544a18.267,18.267,0,0,1-1.713-.646,5.524,5.524,0,0,1-1.5-.952,4.371,4.371,0,0,1-1.054-1.462,5.608,5.608,0,0,1,0-4.166,5.108,5.108,0,0,1,1.169-1.714,5.737,5.737,0,0,1,1.889-1.2,6.906,6.906,0,0,1,2.577-.448,8.2,8.2,0,0,1,2.971.516,7.031,7.031,0,0,1,2.358,1.5Z"/><path class="cls-1" d="M282.626,54.255h-6.309V71.521h-2.623V54.255h-6.322V52.038h15.255Z"/><path class="cls-1" d="M312.578,69.427a5.44,5.44,0,0,0,2.161-.407,4.547,4.547,0,0,0,1.611-1.142,5,5,0,0,0,1.007-1.754,6.949,6.949,0,0,0,.346-2.243V52.038h2.623V63.88a8.876,8.876,0,0,1-.537,3.127,7.228,7.228,0,0,1-1.536,2.495,7.008,7.008,0,0,1-2.44,1.652,9.058,9.058,0,0,1-6.472,0,7.1,7.1,0,0,1-2.447-1.652,7.178,7.178,0,0,1-1.543-2.495,8.876,8.876,0,0,1-.537-3.127V52.038h2.623V63.866a6.91,6.91,0,0,0,.348,2.243,4.986,4.986,0,0,0,1.006,1.754,4.589,4.589,0,0,0,1.618,1.149A5.4,5.4,0,0,0,312.578,69.427Z"/><path class="cls-1" d="M361.495,61.786a10.968,10.968,0,0,1-.694,3.983,8.819,8.819,0,0,1-1.958,3.073,8.719,8.719,0,0,1-3.038,1.978,10.586,10.586,0,0,1-3.923.7h-7.274V52.038h7.274a10.608,10.608,0,0,1,3.923.7,8.673,8.673,0,0,1,3.038,1.985A8.9,8.9,0,0,1,360.8,57.8,10.972,10.972,0,0,1,361.495,61.786Zm-2.706,0a9.788,9.788,0,0,0-.489-3.208,6.78,6.78,0,0,0-1.387-2.393,5.912,5.912,0,0,0-2.175-1.5,7.538,7.538,0,0,0-2.855-.518h-4.636V69.387h4.636a7.538,7.538,0,0,0,2.855-.518,5.949,5.949,0,0,0,2.175-1.489A6.708,6.708,0,0,0,358.3,65,9.8,9.8,0,0,0,358.789,61.786Z"/><path class="cls-1" d="M387.476,71.521h-2.638V52.038h2.638Z"/><path class="cls-1" d="M430,61.786a11.246,11.246,0,0,1-.693,4.018,9.209,9.209,0,0,1-1.958,3.148A8.754,8.754,0,0,1,424.314,71a10.933,10.933,0,0,1-7.838,0,8.764,8.764,0,0,1-3.032-2.046,9.193,9.193,0,0,1-1.958-3.148,11.975,11.975,0,0,1,0-8.035,9.278,9.278,0,0,1,1.958-3.155,8.8,8.8,0,0,1,3.032-2.059,10.828,10.828,0,0,1,7.838,0,8.786,8.786,0,0,1,3.039,2.059,9.3,9.3,0,0,1,1.958,3.155A11.244,11.244,0,0,1,430,61.786Zm-2.706,0a9.883,9.883,0,0,0-.489-3.222,6.817,6.817,0,0,0-1.386-2.413,6.044,6.044,0,0,0-2.176-1.516,7.925,7.925,0,0,0-5.7,0,6.093,6.093,0,0,0-2.182,1.516,6.75,6.75,0,0,0-1.393,2.413,10.831,10.831,0,0,0,0,6.438,6.759,6.759,0,0,0,1.393,2.407,5.994,5.994,0,0,0,2.182,1.508,8,8,0,0,0,5.7,0,5.947,5.947,0,0,0,2.176-1.508A6.826,6.826,0,0,0,426.809,65,9.825,9.825,0,0,0,427.3,61.786Z"/><path class="cls-1" d="M493.51,67.5a.508.508,0,0,1,.381.176l1.047,1.129a8.353,8.353,0,0,1-2.9,2.161,9.939,9.939,0,0,1-4.126.775,9.642,9.642,0,0,1-3.807-.728,8.37,8.37,0,0,1-2.923-2.039,9.22,9.22,0,0,1-1.876-3.148,11.766,11.766,0,0,1-.666-4.039,11.337,11.337,0,0,1,.693-4.038,9.248,9.248,0,0,1,1.951-3.154,8.725,8.725,0,0,1,3.012-2.046,10.01,10.01,0,0,1,3.874-.728,9.448,9.448,0,0,1,3.672.666,9.263,9.263,0,0,1,2.8,1.808l-.869,1.21a.7.7,0,0,1-.211.224.6.6,0,0,1-.346.089,1.082,1.082,0,0,1-.6-.265,9.119,9.119,0,0,0-.924-.591,6.858,6.858,0,0,0-3.535-.856,7.086,7.086,0,0,0-2.76.523,6.02,6.02,0,0,0-2.156,1.516,6.99,6.99,0,0,0-1.406,2.42,9.649,9.649,0,0,0-.5,3.222,9.379,9.379,0,0,0,.524,3.249,7.164,7.164,0,0,0,1.427,2.413,6.034,6.034,0,0,0,2.135,1.5,6.79,6.79,0,0,0,2.657.516,10.95,10.95,0,0,0,1.571-.1,6.442,6.442,0,0,0,1.292-.319,5.453,5.453,0,0,0,1.1-.551,7.9,7.9,0,0,0,1.012-.795A.7.7,0,0,1,493.51,67.5Z"/><path class="cls-1" d="M531.946,71.521h-2.339a1.153,1.153,0,0,1-1.061-.558L523.488,64a1.5,1.5,0,0,0-.5-.469,1.807,1.807,0,0,0-.823-.143h-2v8.13h-2.623V52.038h5.506a12.036,12.036,0,0,1,3.2.374,6.1,6.1,0,0,1,2.223,1.082,4.331,4.331,0,0,1,1.3,1.705,5.716,5.716,0,0,1,.421,2.237,5.6,5.6,0,0,1-.327,1.931,5.065,5.065,0,0,1-.944,1.611,5.657,5.657,0,0,1-1.509,1.217,7.455,7.455,0,0,1-2.019.761,2.6,2.6,0,0,1,.871.829Zm-9-10.048a6.659,6.659,0,0,0,2.019-.278,4.121,4.121,0,0,0,1.468-.788,3.273,3.273,0,0,0,.89-1.217,3.977,3.977,0,0,0,.3-1.563A3.115,3.115,0,0,0,526.48,55a5.549,5.549,0,0,0-3.427-.884h-2.882v7.355Z"/><path class="cls-1" d="M566.151,69.373l-.013,2.148H554.133V52.038h12.005v2.148h-9.368v6.472h7.587v2.067h-7.587v6.648Z"/><path class="cls-1" d="M605.226,71.521h-2.04a.874.874,0,0,1-.571-.176,1.087,1.087,0,0,1-.327-.449l-1.821-4.7h-8.742L589.9,70.9a.946.946,0,0,1-.313.435.863.863,0,0,1-.571.191h-2.04l7.79-19.483h2.666Zm-5.493-7.233-3.06-7.927q-.135-.354-.285-.823t-.286-1a14.9,14.9,0,0,1-.585,1.836l-3.059,7.913Z"/><path class="cls-1" d="M638.6,54.255H632.3V71.521h-2.623V54.255H623.35V52.038H638.6Z"/><path class="cls-1" d="M663.675,71.521h-2.638V52.038h2.638Z"/><path class="cls-1" d="M704.041,52.038,696.1,71.521h-2.365l-7.941-19.483H687.9a.876.876,0,0,1,.571.176,1.085,1.085,0,0,1,.326.449l5.493,13.745q.177.461.348,1.006t.305,1.142q.136-.6.286-1.142t.326-1.006l5.48-13.745a.983.983,0,0,1,.319-.429.876.876,0,0,1,.577-.2Z"/><path class="cls-1" d="M743.617,61.786a11.246,11.246,0,0,1-.693,4.018,9.209,9.209,0,0,1-1.958,3.148A8.754,8.754,0,0,1,737.928,71a10.933,10.933,0,0,1-7.838,0,8.764,8.764,0,0,1-3.032-2.046A9.193,9.193,0,0,1,725.1,65.8a11.975,11.975,0,0,1,0-8.035,9.278,9.278,0,0,1,1.958-3.155,8.8,8.8,0,0,1,3.032-2.059,10.828,10.828,0,0,1,7.838,0,8.786,8.786,0,0,1,3.039,2.059,9.3,9.3,0,0,1,1.958,3.155A11.244,11.244,0,0,1,743.617,61.786Zm-2.706,0a9.883,9.883,0,0,0-.489-3.222,6.817,6.817,0,0,0-1.386-2.413,6.044,6.044,0,0,0-2.176-1.516,7.925,7.925,0,0,0-5.7,0,6.093,6.093,0,0,0-2.182,1.516,6.75,6.75,0,0,0-1.393,2.413,10.831,10.831,0,0,0,0,6.438,6.759,6.759,0,0,0,1.393,2.407,5.994,5.994,0,0,0,2.182,1.508,8,8,0,0,0,5.7,0,5.947,5.947,0,0,0,2.176-1.508A6.826,6.826,0,0,0,740.422,65,9.825,9.825,0,0,0,740.912,61.786Z"/></svg>